<svg width="697" height="558" viewBox="0 0 697 558" fill="none" xmlns="http://www.w3.org/2000/svg">
<g opacity="0.6" filter="url(#filter0_f_155_947)">
<path d="M399.275 224.792C399.175 252.843 376.446 275.584 348.511 275.584C347.532 275.584 346.554 275.564 345.576 275.501C345.222 275.48 344.868 275.48 344.494 275.48C334.252 275.48 325.917 283.82 325.88 294.104C325.867 297.887 326.978 301.399 328.883 304.325C334.121 312.331 337.126 321.925 337.089 332.229C336.989 360.28 314.26 383.022 286.325 383.022C258.389 383.022 235.822 360.28 235.922 332.229C235.959 321.925 239.053 312.331 244.327 304.325C246.273 301.399 247.389 297.866 247.403 294.104C247.439 283.82 239.163 275.48 228.922 275.48C228.568 275.48 228.193 275.48 227.839 275.501H227.818C226.861 275.564 225.882 275.584 224.904 275.584C197.031 275.584 174.464 252.843 174.563 224.792C174.663 196.742 197.392 174 225.328 174C253.263 174 275.83 196.742 275.731 224.792C275.701 233.007 273.738 240.741 270.279 247.617C269 250.126 268.282 252.968 268.271 255.978C268.235 266.262 276.511 274.602 286.752 274.602C296.994 274.602 305.329 266.262 305.366 255.978C305.377 252.968 304.679 250.126 303.418 247.617C300.008 240.762 298.1 233.007 298.129 224.792C298.208 196.742 320.937 174 348.872 174C376.808 174 399.375 196.742 399.275 224.792Z" fill="url(#paint0_linear_155_947)" fill-opacity="0.8"/>
<path d="M399.275 224.792C399.175 252.843 376.446 275.584 348.511 275.584C347.532 275.584 346.554 275.564 345.576 275.501C345.222 275.48 344.868 275.48 344.494 275.48C334.252 275.48 325.917 283.82 325.88 294.104C325.867 297.887 326.978 301.399 328.883 304.325C334.121 312.331 337.126 321.925 337.089 332.229C336.989 360.28 314.26 383.022 286.325 383.022C258.389 383.022 235.822 360.28 235.922 332.229C235.959 321.925 239.053 312.331 244.327 304.325C246.273 301.399 247.389 297.866 247.403 294.104C247.439 283.82 239.163 275.48 228.922 275.48C228.568 275.48 228.193 275.48 227.839 275.501H227.818C226.861 275.564 225.882 275.584 224.904 275.584C197.031 275.584 174.464 252.843 174.563 224.792C174.663 196.742 197.392 174 225.328 174C253.263 174 275.83 196.742 275.731 224.792C275.701 233.007 273.738 240.741 270.279 247.617C269 250.126 268.282 252.968 268.271 255.978C268.235 266.262 276.511 274.602 286.752 274.602C296.994 274.602 305.329 266.262 305.366 255.978C305.377 252.968 304.679 250.126 303.418 247.617C300.008 240.762 298.1 233.007 298.129 224.792C298.208 196.742 320.937 174 348.872 174C376.808 174 399.375 196.742 399.275 224.792Z" fill="url(#paint1_linear_155_947)" fill-opacity="0.8"/>
</g>
<g opacity="0.6" filter="url(#filter1_f_155_947)">
<path d="M421.652 224.792C421.623 233.007 423.531 240.741 426.942 247.617C434.796 263.378 450.598 274.435 469.12 275.501C470.098 275.564 471.077 275.584 472.055 275.584C499.991 275.584 522.72 252.843 522.819 224.792C522.919 196.742 500.352 174 472.417 174C444.481 174 421.752 196.742 421.652 224.792Z" fill="url(#paint2_linear_155_947)" fill-opacity="0.8"/>
<path d="M421.652 224.792C421.623 233.007 423.531 240.741 426.942 247.617C434.796 263.378 450.598 274.435 469.12 275.501C470.098 275.564 471.077 275.584 472.055 275.584C499.991 275.584 522.72 252.843 522.819 224.792C522.919 196.742 500.352 174 472.417 174C444.481 174 421.752 196.742 421.652 224.792Z" fill="url(#paint3_linear_155_947)" fill-opacity="0.8"/>
</g>
<g opacity="0.6" filter="url(#filter2_f_155_947)">
<path d="M367.914 304.325C362.64 312.331 359.545 321.925 359.509 332.229C359.409 360.28 381.976 383.022 409.912 383.022C437.847 383.022 460.576 360.28 460.676 332.229C460.713 321.925 457.687 312.331 452.469 304.325C443.463 290.551 427.946 281.437 410.273 281.437C392.6 281.437 376.997 290.53 367.914 304.325Z" fill="url(#paint4_linear_155_947)" fill-opacity="0.8"/>
<path d="M367.914 304.325C362.64 312.331 359.545 321.925 359.509 332.229C359.409 360.28 381.976 383.022 409.912 383.022C437.847 383.022 460.576 360.28 460.676 332.229C460.713 321.925 457.687 312.331 452.469 304.325C443.463 290.551 427.946 281.437 410.273 281.437C392.6 281.437 376.997 290.53 367.914 304.325Z" fill="url(#paint5_linear_155_947)" fill-opacity="0.8"/>
</g>
<defs>
<filter id="filter0_f_155_947" x="0.562988" y="0" width="572.712" height="557.022" filterUnits="userSpaceOnUse" color-interpolation-filters="sRGB">
<feFlood flood-opacity="0" result="BackgroundImageFix"/>
<feBlend mode="normal" in="SourceGraphic" in2="BackgroundImageFix" result="shape"/>
<feGaussianBlur stdDeviation="87" result="effect1_foregroundBlur_155_947"/>
</filter>
<filter id="filter1_f_155_947" x="247.652" y="0" width="449.168" height="449.584" filterUnits="userSpaceOnUse" color-interpolation-filters="sRGB">
<feFlood flood-opacity="0" result="BackgroundImageFix"/>
<feBlend mode="normal" in="SourceGraphic" in2="BackgroundImageFix" result="shape"/>
<feGaussianBlur stdDeviation="87" result="effect1_foregroundBlur_155_947"/>
</filter>
<filter id="filter2_f_155_947" x="185.508" y="107.437" width="449.168" height="449.584" filterUnits="userSpaceOnUse" color-interpolation-filters="sRGB">
<feFlood flood-opacity="0" result="BackgroundImageFix"/>
<feBlend mode="normal" in="SourceGraphic" in2="BackgroundImageFix" result="shape"/>
<feGaussianBlur stdDeviation="87" result="effect1_foregroundBlur_155_947"/>
</filter>
<linearGradient id="paint0_linear_155_947" x1="224.419" y1="376.86" x2="433.113" y2="280.911" gradientUnits="userSpaceOnUse">
<stop stop-color="#76B4F4"/>
<stop offset="0.270833" stop-color="#519EF3"/>
<stop offset="0.541667" stop-color="#76B4F4"/>
<stop offset="0.755208" stop-color="#63B5FB"/>
<stop offset="0.979167" stop-color="#63B5FB"/>
</linearGradient>
<linearGradient id="paint1_linear_155_947" x1="224.419" y1="376.86" x2="433.113" y2="280.911" gradientUnits="userSpaceOnUse">
<stop stop-color="#0685F1"/>
<stop offset="1" stop-color="#62C4D2" stop-opacity="0"/>
</linearGradient>
<linearGradient id="paint2_linear_155_947" x1="444.171" y1="272.59" x2="540.53" y2="231.576" gradientUnits="userSpaceOnUse">
<stop stop-color="#0685F1"/>
<stop offset="0.270833" stop-color="#519EF3"/>
<stop offset="0.541667" stop-color="#76B4F4"/>
<stop offset="0.755208" stop-color="#62C4D2"/>
<stop offset="0.979167" stop-color="#63B5FB"/>
</linearGradient>
<linearGradient id="paint3_linear_155_947" x1="444.171" y1="272.59" x2="540.53" y2="231.576" gradientUnits="userSpaceOnUse">
<stop stop-color="#0685F1"/>
<stop offset="1" stop-color="#62C4D2" stop-opacity="0"/>
</linearGradient>
<linearGradient id="paint4_linear_155_947" x1="382.028" y1="380.027" x2="478.387" y2="339.013" gradientUnits="userSpaceOnUse">
<stop stop-color="#0685F1"/>
<stop offset="0.270833" stop-color="#519EF3"/>
<stop offset="0.541667" stop-color="#76B4F4"/>
<stop offset="0.755208" stop-color="#62C4D2"/>
<stop offset="0.979167" stop-color="#63B5FB"/>
</linearGradient>
<linearGradient id="paint5_linear_155_947" x1="382.028" y1="380.027" x2="478.387" y2="339.013" gradientUnits="userSpaceOnUse">
<stop stop-color="#0685F1"/>
<stop offset="1" stop-color="#62C4D2" stop-opacity="0"/>
</linearGradient>
</defs>
</svg>
